<?xml version="1.0" encoding="UTF-8"?>
<svg xmlns="http://www.w3.org/2000/svg" xmlns:xlink="http://www.w3.org/1999/xlink" width="33px" height="35px" viewBox="0 0 33 34" version="1.1">
<g id="surface1">
<path style=" stroke:none;fill-rule:nonzero;fill:rgb(70.196078%,70.196078%,70.196078%);fill-opacity:1;" d="M 16.449219 0.0429688 L 0.109375 5.660156 L 2.691406 26.570312 L 16.464844 33.964844 L 30.3125 26.46875 L 32.894531 5.558594 Z M 16.449219 0.0429688 "/>
<path style=" stroke:none;fill-rule:nonzero;fill:rgb(65.098039%,7.058824%,5.098039%);fill-opacity:1;" d="M 31.265625 6.769531 L 16.410156 1.820312 L 16.410156 32.195312 L 28.859375 25.46875 Z M 31.265625 6.769531 "/>
<path style=" stroke:none;fill-rule:nonzero;fill:rgb(86.666667%,10.588235%,8.627451%);fill-opacity:1;" d="M 1.941406 6.859375 L 4.15625 25.558594 L 16.410156 32.195312 L 16.410156 1.820312 Z M 1.941406 6.859375 "/>
<path style=" stroke:none;fill-rule:nonzero;fill:rgb(94.901961%,94.901961%,94.901961%);fill-opacity:1;" d="M 20.5 17.992188 L 16.410156 19.859375 L 12.101562 19.859375 L 10.078125 24.808594 L 6.308594 24.875 L 16.410156 2.925781 Z M 20.105469 17.050781 L 16.4375 9.960938 L 13.429688 16.929688 L 16.410156 16.929688 Z M 20.105469 17.050781 "/>
<path style=" stroke:none;fill-rule:nonzero;fill:rgb(70.196078%,70.196078%,70.196078%);fill-opacity:1;" d="M 16.410156 2.925781 L 16.4375 9.960938 L 19.851562 16.933594 L 16.417969 16.933594 L 16.410156 19.855469 L 21.15625 19.859375 L 23.375 24.875 L 26.980469 24.941406 Z M 16.410156 2.925781 "/>
</g>
</svg>
